<svg width="949" height="265" xmlns="http://www.w3.org/2000/svg" xmlns:xlink="http://www.w3.org/1999/xlink" xml:space="preserve" overflow="hidden"><g transform="translate(-2369 -1815)"><g><text fill="#FFFFFF" fill-opacity="1" font-family="Heebo Medium,Heebo Medium_MSFontService,sans-serif" font-style="normal" font-variant="normal" font-weight="500" font-stretch="normal" font-size="110" text-anchor="start" direction="ltr" writing-mode="lr-tb" unicode-bidi="normal" text-decoration="none" transform="matrix(1 0 0 1 2547.55 1975)">MGN SYSTEM</text><path d="M2392 1934 2507 1984 2507 1884 2392 1934Z" fill="#FFFFFF" fill-rule="evenodd" fill-opacity="1"/><path d="M2523.44 1958.63C2525.58 1950.92 2526.91 1942.18 2526.74 1933.63 2526.57 1925.08 2525.1 1916.88 2522.65 1909.35 2522.57 1909.19 2522.57 1909.03 2522.49 1908.87 2512.71 1880.59 2487.97 1860.11 2461.76 1860.24L2461.76 1860.24 2464.8 2009.68C2491.14 2008.74 2515.03 1987.6 2523.44 1958.63Z" fill="#FFFFFF" fill-rule="evenodd" fill-opacity="1"/><path d="M2379.59 1886.16 2372.25 1915.75 2408.84 1894.77 2379.59 1886.16Z" fill="#FFFFFF" fill-rule="evenodd" fill-opacity="1"/><path d="M2381.84 1983.91 2411.06 1975.24 2374.43 1954.34 2381.84 1983.91Z" fill="#FFFFFF" fill-rule="evenodd" fill-opacity="1"/></g></g></svg>