<svg width="1443" height="426" xmlns="http://www.w3.org/2000/svg" xmlns:xlink="http://www.w3.org/1999/xlink" xml:space="preserve" overflow="hidden"><g transform="translate(-2264 -1705)"><g><text fill="#FFFFFF" fill-opacity="1" font-family="Heebo Medium,Heebo Medium_MSFontService,sans-serif" font-style="normal" font-variant="normal" font-weight="500" font-stretch="normal" font-size="165" text-anchor="start" direction="ltr" writing-mode="lr-tb" unicode-bidi="normal" text-decoration="none" transform="matrix(1 0 0 1 2550.81 1972)">MGN SYSTEM</text><path d="M2297 1906.5 2476 1984 2476 1829 2297 1906.5Z" fill="#FFFFFF" fill-rule="evenodd" fill-opacity="1"/><path d="M2500.44 1944.33C2503.76 1932.43 2505.81 1918.93 2505.55 1905.73 2505.28 1892.53 2503.02 1879.87 2499.23 1868.24 2499.11 1867.99 2499.11 1867.74 2498.99 1867.49 2483.88 1823.82 2445.68 1792.21 2405.19 1792.41L2405.19 1792.41 2409.89 2023.17C2450.57 2021.72 2487.46 1989.08 2500.44 1944.33Z" fill="#FFFFFF" fill-rule="evenodd" fill-opacity="1"/><path d="M2278.31 1832.43 2266.97 1878.12 2323.47 1845.72 2278.31 1832.43Z" fill="#FFFFFF" fill-rule="evenodd" fill-opacity="1"/><path d="M2281.78 1983.38 2326.91 1969.99 2270.34 1937.71 2281.78 1983.38Z" fill="#FFFFFF" fill-rule="evenodd" fill-opacity="1"/></g></g></svg>