<svg width="645" height="176" xmlns="http://www.w3.org/2000/svg" xmlns:xlink="http://www.w3.org/1999/xlink" xml:space="preserve" overflow="hidden"><g transform="translate(-460 -345)"><g><g><g><g><text fill="#FFFFFF" fill-opacity="1" font-family="Heebo Medium,Heebo Medium_MSFontService,sans-serif" font-style="normal" font-variant="normal" font-weight="500" font-stretch="normal" font-size="321" text-anchor="start" direction="ltr" writing-mode="lr-tb" unicode-bidi="normal" text-decoration="none" transform="matrix(0.231017 0 0 0.231481 586.785 451)">MGN SYSTEM</text><path d="M477.281 431.425 558.138 466.655 558.138 396.194 477.281 431.425Z" fill="#FFFFFF" fill-rule="evenodd" fill-opacity="1" transform="matrix(1 0 0 1.00201 -2.49642 -4)"/><path d="M569.4 448.478C570.904 443.072 571.839 436.941 571.717 430.946 571.594 424.951 570.571 419.201 568.848 413.918 568.794 413.807 568.792 413.694 568.739 413.581 561.878 393.748 544.531 379.39 526.144 379.483L526.144 379.483 528.276 484.279C546.753 483.621 563.506 468.796 569.4 448.478Z" fill="#FFFFFF" fill-rule="evenodd" fill-opacity="1" transform="matrix(1 0 0 1.00201 -2.49642 -4)"/><path d="M468.521 397.659 463.374 418.409 489.031 403.693 468.521 397.659Z" fill="#FFFFFF" fill-rule="evenodd" fill-opacity="1" transform="matrix(1 0 0 1.00201 -2.49642 -4)"/><path d="M470.203 466.13 490.699 460.05 465.008 445.392 470.203 466.13Z" fill="#FFFFFF" fill-rule="evenodd" fill-opacity="1" transform="matrix(1 0 0 1.00201 -2.49642 -4)"/></g></g></g></g></g></svg>