<svg width="2792" height="756" xmlns="http://www.w3.org/2000/svg" xmlns:xlink="http://www.w3.org/1999/xlink" xml:space="preserve" overflow="hidden"><g transform="translate(-2002 -1512)"><g><text fill="#AEAEAE" fill-opacity="1" font-family="Heebo Medium,Heebo Medium_MSFontService,sans-serif" font-style="normal" font-variant="normal" font-weight="500" font-stretch="normal" font-size="321" text-anchor="start" direction="ltr" writing-mode="lr-tb" unicode-bidi="normal" text-decoration="none" transform="matrix(1 0 0 1 2550.81 1965)">MGN SYSTEM</text><path d="M2066 1867.5 2416 2020 2416 1715 2066 1867.5Z" fill="#2A3A4A" fill-rule="evenodd" fill-opacity="1"/><path d="M2464.75 1941.32C2471.26 1917.92 2475.31 1891.38 2474.78 1865.43 2474.25 1839.48 2469.82 1814.59 2462.36 1791.72 2462.13 1791.24 2462.12 1790.75 2461.89 1790.26 2432.19 1704.41 2357.1 1642.26 2277.51 1642.66L2277.51 1642.66 2286.74 2096.29C2366.72 2093.44 2439.24 2029.27 2464.75 1941.32Z" fill="#2A3A4A" fill-rule="evenodd" fill-opacity="1"/><path d="M2028.08 1721.34 2005.8 1811.16 2116.86 1747.46 2028.08 1721.34Z" fill="#2A3A4A" fill-rule="evenodd" fill-opacity="1"/><path d="M2035.36 2017.73 2124.08 1991.41 2012.87 1927.96 2035.36 2017.73Z" fill="#2A3A4A" fill-rule="evenodd" fill-opacity="1"/></g></g></svg>