<svg width="3997" height="1164" xmlns="http://www.w3.org/2000/svg" xmlns:xlink="http://www.w3.org/1999/xlink" xml:space="preserve" overflow="hidden"><g transform="translate(-1599 -1214)"><g><text fill="#AEAEAE" fill-opacity="1" font-family="Heebo Medium,Heebo Medium_MSFontService,sans-serif" font-style="normal" font-variant="normal" font-weight="500" font-stretch="normal" font-size="440" text-anchor="start" direction="ltr" writing-mode="lr-tb" unicode-bidi="normal" text-decoration="none" transform="matrix(1 0 0 1 2518.18 1962)">MGN SYSTEM</text><path d="M1702 1812 2293 2069 2293 1555 1702 1812Z" fill="#2A3A4A" fill-rule="evenodd" fill-opacity="1"/><path d="M2375.81 1936.65C2386.81 1897.13 2393.64 1852.33 2392.75 1808.51 2391.86 1764.68 2384.37 1722.65 2371.78 1684.03 2371.39 1683.21 2371.37 1682.38 2370.99 1681.57 2320.83 1536.59 2194.02 1431.64 2059.62 1432.31L2059.62 1432.31 2075.21 2198.36C2210.26 2193.54 2332.73 2085.17 2375.81 1936.65Z" fill="#2A3A4A" fill-rule="evenodd" fill-opacity="1"/><path d="M1638.41 1565.17 1600.78 1716.86 1788.34 1609.29 1638.41 1565.17Z" fill="#2A3A4A" fill-rule="evenodd" fill-opacity="1"/><path d="M1650.69 2065.69 1800.52 2021.25 1612.73 1914.09 1650.69 2065.69Z" fill="#2A3A4A" fill-rule="evenodd" fill-opacity="1"/></g></g></svg>