<svg width="6632" height="1797" xmlns="http://www.w3.org/2000/svg" xmlns:xlink="http://www.w3.org/1999/xlink" xml:space="preserve" overflow="hidden"><g transform="translate(-210 -1081)"><g><text fill="#AEAEAE" fill-opacity="1" font-family="Heebo Medium,Heebo Medium_MSFontService,sans-serif" font-style="normal" font-variant="normal" font-weight="500" font-stretch="normal" font-size="761" text-anchor="start" direction="ltr" writing-mode="lr-tb" unicode-bidi="normal" text-decoration="none" transform="matrix(1 0 0 1 1521.75 2159)">MGN SYSTEM</text><path d="M381 1899 1297 2252 1297 1546 381 1899Z" fill="#2A3A4A" fill-rule="evenodd" fill-opacity="1"/><path d="M1423.81 2069.63C1440.99 2015.29 1451.73 1953.68 1450.5 1893.46 1449.27 1833.24 1437.82 1775.5 1418.46 1722.46 1417.87 1721.34 1417.84 1720.2 1417.25 1719.08 1340.09 1520.01 1144.1 1376.22 935.982 1377.62L935.982 1377.62 957.404 2430.38C1166.55 2423.28 1356.57 2273.91 1423.81 2069.63Z" fill="#2A3A4A" fill-rule="evenodd" fill-opacity="1"/><path d="M282.034 1562.7 213.971 1780.52 504.415 1613.95 282.034 1562.7Z" fill="#2A3A4A" fill-rule="evenodd" fill-opacity="1"/><path d="M314.155 2250.51 536.424 2198.78 245.613 2032.84 314.155 2250.51Z" fill="#2A3A4A" fill-rule="evenodd" fill-opacity="1"/></g></g></svg>